# xmcd CD database file
#
# Track frame offsets:
#	150
#	12705
#	26354
#	41344
#	56010
#	71115
#	89574
#	103122
#	119756
#	135359
#	157238
#	173026
#
# Disc length: 2496 seconds
#
# Revision: 0
# Processed by: cddbd v1.5.2PL0 Copyright (c) Steve Scherf et al.
# Submitted via: CDex 1.70beta2
#
DISCID=a909be0c
DTITLE=Leadfoot, Whisky Joe, and Friends - Cdn. - Unlawfully At Large
DYEAR=1900
DGENRE=Country
TTITLE0=A Little Tokyo
TTITLE1=This Side of Lonely
TTITLE2=Big Dog Freddie
TTITLE3=No Thanks to You
TTITLE4=Old Fashioned Cowhand
TTITLE5=When I Died
TTITLE6=Blacktop Blues
TTITLE7=Whatr Love Was Really Made For
TTITLE8=Overloaded
TTITLE9=Travelin' Parole Board Blues
TTITLE10=Good Intentions
TTITLE11=Dying In the Fall
EXTD=
EXTT0=
EXTT1=
EXTT2=
EXTT3=
EXTT4=
EXTT5=
EXTT6=
EXTT7=
EXTT8=
EXTT9=
EXTT10=
EXTT11=
PLAYORDER=
